<svg width="488" height="119" xmlns="http://www.w3.org/2000/svg">
 <!-- Created with Method Draw - http://github.com/duopixel/Method-Draw/ -->

 <g>
  <title>background</title>
  <rect fill="#489fb5" id="canvas_background" height="121" width="490" y="-1" x="-1"/>
  <g display="none" overflow="visible" y="0" x="0" height="100%" width="100%" id="canvasGrid">
   <rect fill="url(#gridpattern)" stroke-width="0" y="0" x="0" height="100%" width="100%"/>
  </g>
 </g>
 <g>
  <title>Layer 1</title>
  <text stroke="#ffffff" transform="matrix(2.051907777786255,0,0,2.4991633892059326,-284.54105389118195,-267.81148482486606) " font-style="italic" font-weight="bold" xml:space="preserve" text-anchor="start" font-family="'Trebuchet MS', Gadget, sans-serif" font-size="29" id="svg_1" y="149.83286" x="141.52188" stroke-width="2" fill="#ffffff">Chu a Pra Can o</text>
  <path d="m21.5,-45.95c-6,0 -20.41618,2.96001 -39,11c-18.47016,7.99081 -32.29247,19.10112 -41,33c-7.12288,11.36946 -9.7466,23.42934 -7,32c2.62524,8.19196 11.23161,14.70299 19,20.99998c8.25791,6.69379 16.01352,10.56503 23,11c8.04668,0.50098 15.84949,-0.25668 21,-7c4.89374,-6.40714 6.5695,-12.133 8,-15.99998c1.55159,-4.19435 3,-8 3,-12l0,-2" id="svg_2" stroke-width="1.5" fill="none"/>
  <path d="m-15.5,13.05c-5,-15 -8.28632,-24.93202 -11,-37c-2.23732,-9.94958 -2,-17 -2,-21c0,-3 0.96384,-5.11586 4,-6c3.95868,-1.15277 8,-1 12,-1l2,1l2,0" id="svg_3" stroke-width="1.5" fill="none"/>
  <path d="m51.5,-39.95c0,-2 2.97252,-4.64749 4,-9c0.91901,-3.89299 0.49623,-7.90779 1,-12c0.36655,-2.97752 0,-5 0,-7c0,-2 0.68925,-4.08025 0,-7c-0.51375,-2.17625 -1,-4 -2,-6l0,-1l0,-1l0,-1" id="svg_5" stroke-width="1.5" fill="none"/>
  <path d="m88.5,-94.95c21,0 41.02646,-0.60275 59,-2c10.01965,-0.77892 20.99622,-1.0586 36,-2c16.99597,-1.0664 32.92337,-2.53204 45,-4c12.94315,-1.57329 20,-2 21,-2c2,0 3,3 6,8l4,6l1,2" id="svg_6" stroke-width="1.5" fill="none"/>
  <path d="m283.5,-78.95c4,-1 9.83441,-5.48866 21,-9c14.80914,-4.65717 32.19873,-8.23376 49,-13c12.16895,-3.45212 21.98047,-6.06585 32,-9c6.98669,-2.04601 12,-4 14,-7c2,-3 3.54047,-5.0535 4,-7c0.51373,-2.17625 1,-3 2,-3l0,-1" id="svg_7" stroke-width="1.5" fill="none"/>
  <path stroke="null" transform="rotate(12 432.0292968750001,60.29718017578107) " id="svg_15" d="m472.23624,30.37117c0.55214,-1.90059 0.60111,-5.01364 0.11164,-6.92501l-1.61974,-6.31062c-0.4894,-1.91135 -2.66587,-3.74926 -4.83935,-4.08375l-14.92772,-2.29197c-2.17191,-0.33448 -5.72953,-0.32356 -7.89838,0.02442l-16.16972,2.58839c-2.17346,0.34797 -5.72947,0.38331 -7.91056,0.08158l-15.82104,-2.1915c0.01988,0.06797 0.05505,0.12787 0.07193,0.19584l10.82874,45.72642l4.95561,0.76119c2.17338,0.33452 5.72637,0.32085 7.89982,-0.02437l16.16513,-2.5911c2.16885,-0.34526 5.7295,-0.38059 7.91059,-0.07889l17.35812,2.40631c2.18109,0.3017 3.63263,-1.02513 3.23487,-2.95547l-1.9439,-9.353c-0.40075,-1.92776 -0.27694,-5.05719 0.27218,-6.95778l2.3218,-8.02068l0,0zm-77.67521,-20.92729c-2.1703,0.40777 -3.55758,2.29195 -3.10027,4.21695l23.10755,97.56768l8.19045,0l-23.4471,-99.02772c-0.46496,-1.93318 -2.58639,-3.16481 -4.75063,-2.75691l0,0z" stroke-opacity="null" stroke-width="3" fill="#ffffff"/>
  <path stroke="null" transform="rotate(12 143.02929687500003,59.29718017578118) " id="svg_17" d="m183.23624,29.37117c0.55214,-1.90059 0.60111,-5.01364 0.11164,-6.925l-1.61974,-6.31062c-0.4894,-1.91135 -2.66587,-3.74927 -4.83935,-4.08375l-14.92773,-2.29197c-2.17191,-0.33448 -5.72953,-0.32356 -7.89837,0.02442l-16.16973,2.58839c-2.17345,0.34797 -5.72947,0.38331 -7.91056,0.08158l-15.82104,-2.1915c0.01988,0.06797 0.05505,0.12786 0.07193,0.19584l10.82874,45.72641l4.95561,0.76119c2.17338,0.33452 5.72637,0.32084 7.89983,-0.02437l16.16513,-2.59111c2.16884,-0.34526 5.7295,-0.38059 7.91058,-0.07888l17.35812,2.40631c2.18109,0.30169 3.63263,-1.02514 3.23487,-2.95547l-1.9439,-9.35301c-0.40076,-1.92775 -0.27694,-5.05718 0.27217,-6.95777l2.3218,-8.02068l0,-0.00001zm-77.67521,-20.92729c-2.1703,0.40778 -3.55758,2.29195 -3.10027,4.21695l23.10756,97.56768l8.19044,0l-23.4471,-99.02772c-0.46496,-1.93318 -2.58638,-3.16481 -4.75063,-2.75691l0,0z" stroke-opacity="null" stroke-width="3" fill="#ffffff"/>
 </g>
</svg>