<?xml version="1.0" encoding="UTF-8"?>
<svg xmlns="http://www.w3.org/2000/svg" xmlns:xlink="http://www.w3.org/1999/xlink" width="493pt" height="757pt" viewBox="0 0 493 757" version="1.1">
<g id="surface1">
<path style=" stroke:none;fill-rule:evenodd;fill:rgb(100%,100%,100%);fill-opacity:1;" d="M 422.523438 5.714844 L 70.378906 5.714844 C 34.5625 5.714844 5.253906 35.027344 5.253906 70.859375 L 5.253906 685.882813 C 5.253906 721.714844 34.5625 751.03125 70.378906 751.03125 L 422.523438 751.03125 C 458.339844 751.03125 487.648438 721.714844 487.648438 685.882813 L 487.648438 70.859375 C 487.648438 35.027344 458.339844 5.714844 422.523438 5.714844 "/>
<path style="fill:none;stroke-width:100.001;stroke-linecap:butt;stroke-linejoin:miter;stroke:rgb(6.698608%,54.499817%,74.499512%);stroke-opacity:1;stroke-miterlimit:2.61313;" d="M 4225.234375 7512.851563 L 703.789063 7512.851563 C 345.625 7512.851563 52.539063 7219.726563 52.539063 6861.40625 L 52.539063 711.171875 C 52.539063 352.851563 345.625 59.6875 703.789063 59.6875 L 4225.234375 59.6875 C 4583.398438 59.6875 4876.484375 352.851563 4876.484375 711.171875 L 4876.484375 6861.40625 C 4876.484375 7219.726563 4583.398438 7512.851563 4225.234375 7512.851563 Z M 4225.234375 7512.851563 " transform="matrix(0.1,0,0,-0.1,0,757)"/>
<path style=" stroke:none;fill-rule:evenodd;fill:rgb(5.099487%,45.498657%,65.899658%);fill-opacity:1;" d="M 418.015625 16.851563 L 74.886719 16.851563 C 43.429688 16.851563 17.691406 43.121094 17.691406 75.234375 L 17.691406 679.820313 C 17.691406 711.929688 43.429688 738.203125 74.886719 738.203125 L 418.015625 738.203125 C 449.472656 738.203125 475.210938 711.929688 475.210938 679.820313 L 475.210938 75.234375 C 475.210938 43.121094 449.472656 16.851563 418.015625 16.851563 "/>
<path style=" stroke:none;fill-rule:evenodd;fill:rgb(33.699036%,71.398926%,34.899902%);fill-opacity:1;" d="M 475.210938 550.105469 C 452.996094 562.410156 401.847656 591.761719 341.496094 592.324219 C 281.148438 592.890625 109.15625 552.753906 17.691406 563.464844 L 17.691406 679.820313 C 17.691406 711.929688 43.429688 738.203125 74.886719 738.203125 L 418.015625 738.203125 C 449.472656 738.203125 475.210938 711.929688 475.210938 679.820313 L 475.210938 550.105469 "/>
<path style=" stroke:none;fill-rule:evenodd;fill:rgb(100%,100%,100%);fill-opacity:1;" d="M 409.175781 612.132813 C 437 612.132813 459.5625 634.699219 459.5625 662.523438 C 459.5625 690.34375 437 712.90625 409.175781 712.90625 C 381.351563 712.90625 358.789063 690.34375 358.789063 662.523438 C 358.789063 634.699219 381.351563 612.132813 409.175781 612.132813 "/>
<path style=" stroke:none;fill-rule:evenodd;fill:rgb(100%,100%,100%);fill-opacity:1;" d="M 15.992188 590.65625 L 22.601563 586.527344 L 28.796875 584.464844 C 28.796875 584.464844 53.679688 592.515625 55.640625 593.136719 C 57.601563 593.753906 84.832031 591.316406 95.703125 589.417969 C 106.574219 587.519531 141.734375 513.410156 143.199219 511.359375 C 144.664063 509.3125 178.789063 538.980469 187.710938 539.210938 C 196.632813 539.4375 212.570313 534.800781 216.519531 537.867188 C 225.875 545.140625 245.230469 555.59375 246.242188 560.714844 L 253.058594 595.199219 L 249.753906 597.265625 L 249.136719 606.765625 C 248.535156 615.988281 251.839844 607.839844 256.15625 612.136719 C 256.996094 612.972656 257.578125 617.402344 260.914063 622.730469 C 267.738281 633.644531 280.175781 650.957031 288.464844 667.335938 C 296.902344 684.015625 302.011719 699.605469 301.796875 700.929688 L 300.375 709.546875 L 297.199219 713.839844 C 293.402344 718.96875 293.722656 724.78125 292.707031 730.460938 L 293.742188 734.589844 L 293.535156 741.820313 L 418.261719 741.820313 C 418.535156 735.347656 421.289063 737.550781 413.515625 730.050781 L 398.4375 726.125 L 383.570313 719.515625 L 374.203125 712.472656 L 357.964844 706.507813 L 355.125 683.246094 L 350.738281 678.421875 C 350.207031 675.046875 349.433594 671.257813 348.484375 667.203125 C 347.539063 663.148438 346.417969 658.828125 345.1875 654.382813 C 343.957031 649.941406 342.621094 645.371094 341.238281 640.828125 C 339.859375 636.28125 338.4375 631.757813 337.042969 627.398438 C 335.644531 623.039063 334.273438 618.847656 332.996094 614.96875 C 331.714844 611.085938 330.527344 607.515625 329.496094 604.398438 C 328.46875 601.28125 327.597656 598.617188 326.949219 596.554688 C 326.300781 594.492188 325.140625 592.71875 325.75 592.308594 L 329.460938 589.828125 L 328.222656 578.679688 L 318.125 573.78125 L 285.6875 495.046875 C 258.980469 464.347656 224.839844 437.019531 191.519531 411.824219 L 186.515625 358.9375 L 188.628906 337.484375 C 211.757813 348.636719 237.363281 364.328125 260.078125 369.699219 C 276.464844 366.257813 305.234375 363.230469 312.945313 354.828125 C 317.945313 349.429688 313.3125 342.558594 311.488281 337.59375 C 309.664063 332.628906 315.355469 325.234375 309.953125 322.011719 C 304.554688 318.785156 313.152344 319.246094 309.640625 314.769531 L 291.054688 311.464844 L 279.492188 316.421875 L 274.535156 327.984375 C 266.789063 321.585938 257.804688 316.839844 251.300781 308.789063 L 236.539063 296.597656 L 223.324219 293.292969 C 205.976563 277.183594 193.585938 256.949219 178.71875 238.773438 C 176.929688 223.632813 175.136719 193.621094 170.871094 190.867188 L 151.394531 180.207031 L 144.851563 172.695313 L 148.980469 161.128906 C 153.359375 159.867188 163.855469 159.03125 164.925781 152.105469 C 169.101563 147.308594 168.34375 143.4375 171.382813 141.664063 C 178.0625 137.769531 185.652344 140.175781 185.945313 134.699219 L 186.5625 123.132813 C 186.5625 123.132813 189.871094 117.867188 193.585938 106.097656 C 194.457031 103.339844 195.433594 89.796875 196.632813 87.296875 C 201.171875 77.835938 199.367188 77.4375 198.542969 74.398438 C 197.394531 70.171875 185.28125 37.371094 156.699219 30.785156 C 139.4375 26.808594 117.335938 21.523438 104.144531 39.253906 C 100.820313 43.726563 98.871094 46.507813 96.707031 51.578125 C 92.238281 62.042969 89.554688 74.484375 89.484375 84.566406 C 89.410156 94.632813 92.5625 101.386719 87.238281 101.652344 C 83.105469 101.859375 73.199219 107.230469 73.816406 110.535156 C 74.640625 116.109375 79.800781 120.445313 76.085938 122.511719 C 63.019531 122.371094 45.347656 124.476563 38.503906 128.292969 L 13.515625 138.828125 L 10.210938 237.949219 L 13.488281 222.457031 L 19.296875 220.601563 L 27.558594 225.558594 L 53.988281 339.550781 L 71.335938 342.851563 L 51.511719 380.851563 L 48.207031 422.152344 L 58.121094 443.628906 L 56.46875 529.53125 L 15.167969 513.011719 L 15.992188 590.65625 "/>
<path style=" stroke:none;fill-rule:evenodd;fill:rgb(96.099854%,78.399658%,11.799622%);fill-opacity:1;" d="M 410.96875 379.199219 L 400.726563 410.347656 L 366.84375 410.117188 L 394.394531 429.140625 L 383.699219 460.148438 L 410.96875 440.753906 L 438.242188 460.148438 L 427.546875 429.140625 L 455.097656 410.117188 L 421.214844 410.347656 L 410.96875 379.199219 "/>
<path style=" stroke:none;fill-rule:evenodd;fill:rgb(96.099854%,78.399658%,11.799622%);fill-opacity:1;" d="M 410.96875 293.292969 L 400.726563 324.441406 L 366.84375 324.210938 L 394.394531 343.234375 L 383.699219 374.242188 L 410.96875 354.847656 L 438.242188 374.242188 L 427.546875 343.234375 L 455.097656 324.210938 L 421.214844 324.441406 L 410.96875 293.292969 "/>
<path style=" stroke:none;fill-rule:evenodd;fill:rgb(96.099854%,78.399658%,11.799622%);fill-opacity:1;" d="M 410.96875 120.753906 L 400.726563 151.902344 L 366.84375 151.675781 L 394.394531 170.695313 L 383.695313 201.703125 L 410.96875 182.308594 L 438.242188 201.703125 L 427.546875 170.695313 L 455.097656 151.675781 L 421.214844 151.902344 L 410.96875 120.753906 "/>
<path style=" stroke:none;fill-rule:evenodd;fill:rgb(96.099854%,78.399658%,11.799622%);fill-opacity:1;" d="M 410.96875 205.734375 L 400.726563 236.882813 L 366.84375 236.65625 L 394.394531 255.675781 L 383.695313 286.683594 L 410.96875 267.289063 L 438.242188 286.683594 L 427.546875 255.675781 L 455.097656 236.65625 L 421.214844 236.882813 L 410.96875 205.734375 "/>
<path style=" stroke:none;fill-rule:evenodd;fill:rgb(96.099854%,78.399658%,11.799622%);fill-opacity:1;" d="M 410.96875 35.574219 L 400.726563 66.726563 L 366.84375 66.496094 L 394.394531 85.519531 L 383.699219 116.523438 L 410.96875 97.132813 L 438.242188 116.523438 L 427.546875 85.519531 L 455.097656 66.496094 L 421.214844 66.726563 L 410.96875 35.574219 "/>
</g>
</svg>
