<?xml version="1.0" encoding="UTF-8"?><svg xmlns="http://www.w3.org/2000/svg" xmlns:xlink="http://www.w3.org/1999/xlink" viewBox="0 0 48 48" version="1.1"><g id="surface1"><path d="M47.16 5.43H20.117c-.105-.149-.207-.164-.293-.27l-.105-.133a.879.879 0 0 1-.176-.46l.016-.083a.274.274 0 0 1 .027-.043l.066-.132.028-.118v-.007c0-.047-.024-.086-.043-.13a.269.269 0 0 0 .133-.206l.003-.098-.015-.215c-.043-.285-.281-.77-.73-.863a.634.634 0 0 0-.415.031c-.031-.023-.097-.078-.136-.11.035-.038.074-.081.082-.128.156-.88.57-1.856.695-2.137l.027-.121a.3.3 0 0 0-.535-.187L18.5.344l-.094-.356a.293.293 0 0 0-.215-.215.303.303 0 0 0-.293.086c.004-.007.004-.007-.37.391 0 0-.38.398-.438.465-.067-.074-.832-.973-.832-.973a.293.293 0 0 0-.23-.105.297.297 0 0 0-.227.105l-.832.973-.813-.86a.301.301 0 0 0-.508.133l-.093.356c-.078-.106-.246-.324-.246-.324a.302.302 0 0 0-.391-.07.31.31 0 0 0-.145.257l.028.121c.12.277.535 1.254.695 2.137 0-.004.008.012.012.023-.063.035-.305.157-.305.157a.296.296 0 0 0-.113.167c-.047-.011-.117-.023-.117-.023-.368-.023-.637.121-.82.426-.09.156-.153.379-.153.566l.016.156a.417.417 0 0 0 .164.274c-.274.336-.422.73-.551 1.219H.839c-.655 0-1.187.527-1.187 1.18 0 .105.035.28.07.402 0 0 .036.156 9.212 34.562l.007.02a3.419 3.419 0 0 0 1.926 2.062l.04.016L24 48.324c.578-.207 13.09-4.652 13.09-4.652l.043-.016a3.43 3.43 0 0 0 1.926-2.062l.007-.02c9.172-34.406 9.207-34.562 9.211-34.562.032-.121.067-.297.067-.403 0-.648-.532-1.18-1.184-1.18z" fill="#FFF"/><path d="M21.152 21.66c-.558-.027-1.27.11-1.68.348 0 .574-.058 1.16-.167 1.664.375.277 1.164.605 1.605.703.352-.254.797-.777 1.035-1.18-.136-.57-.41-1.168-.793-1.535m-.28.625c-.458-.12-1.161-.12-1.161-.12.394-.134.887-.247 1.324-.235.277.297.461.707.625 1.172 0 0-.402-.52-.789-.817m.832-1.504c-.004-.004-.086.137-.476.157a.954.954 0 0 1 .14.273s.461.031.762.11c.324.288.566.628.738 1.042 0 .004-.199.422-.437.832.199.407.425.93.46 1.403a3.033 3.033 0 0 1-1.12 1.406c.066-.164.144-.387.19-.621a5.672 5.672 0 0 1-1.042-.211c-.305.379-.676.637-1.148.867.07.156.21.371.308.477-.77 0-1.473-.286-2.004-.758 0 0 .383.05.727-.016a7.142 7.142 0 0 1-.074-1.539 5.718 5.718 0 0 1-1.41-.601c-.075.14-.153.332-.204.449a3 3 0 0 1 .348-2.028c.05.079.098.16.14.23.36-.245.852-.5 1.38-.667.027-.211.078-.516.124-.715 0 0-.203-.02-.285-.105-.043-.043-.093-.04-.133-.024-.18.086-.44.028-.496.004a3.465 3.465 0 0 0-1.71 2.969c0 1.89 1.539 3.426 3.44 3.426a3.433 3.433 0 0 0 3.438-3.426 3.42 3.42 0 0 0-1.656-2.934m-.281 5.496c-.02-.18-.047-.394-.059-.511-.16-.141-.304-.266-.422-.36.196.055.528.133.747.18a4.297 4.297 0 0 1-.266.691m1.363-3.152l.18-.402s.262.867.012 1.593c0 0 0-.609-.192-1.191" fill="#ED1A3B"/><path d="M48 6.613a.951.951 0 0 1-.027.215l-9.2 34.555A3.078 3.078 0 0 1 37 43.34l-.031.015L24 47.961l-12.969-4.606L11 43.34a3.062 3.062 0 0 1-1.77-1.957L.027 6.828a.835.835 0 0 1 .813-1.05h10.7l-.024.097c-.133.496-.262.922-.559 1.184H2.812c-.562 0-1.019.453-1.019 1.015 0 .09.012.18.031.262l8.637 32.68c.156.515.539.937 1.035 1.144L24 46.602l12.504-4.442a1.815 1.815 0 0 0 1.035-1.144l8.633-32.68a1.017 1.017 0 0 0-.984-1.277H20.425c-.016-.02.012.02 0 0l.039-.016c.082-.055.094-.211.094-.313a2.134 2.134 0 0 0-.243-.953H47.16c.461 0 .84.371.84.836zm-29.785-5.48s.566-.578.734-.79c-.273.618-.59 1.509-.719 2.145-.668-.21-1.503-.273-2.214-.273-.715 0-1.551.062-2.22.273-.128-.636-.444-1.527-.718-2.144.172.21.738.789.738.789l.121-.969 1.094 1.094.985-1.219.976 1.219L18.09.168l.125.965m-4.016.953c.196-.047.434-.09.7-.117l-.68-.574-.02.69m1.817-.175c.207 0 .406.008.597.02l-.597-.692-.602.692a9.88 9.88 0 0 1 .602-.02m1.117.059c.262.027.5.07.695.117l-.02-.691-.675.574m16.48 23.754c.215.277.262.652.215.84-.023.109-.027.207-.223.207h-2c-.238 0-.375-.004-.433-.176-.07-.223-.07-.59.066-.844.106-.195.215-.332.282-.531.043-.137.066-.367-.075-.7a22.57 22.57 0 0 0-.715-1.507c-.09-.172-.168-.301-.425-.555-2.051-2.047-2.121-2.52-2.344-2.73-.207-.2-.453-.043-.602.191-.71 1.164.653 2.434.848 2.762.277.453.246.726-.004 1.078-.387.531-.82 1.09-.992 1.48-.098.227-.145.48-.254.637-.145.21-.39.344-.492.46-.102.122-.195.243-.25.306-.074.093-.176.129-.371.129h-2.13c-.179 0-.187-.165-.187-.165-.007-.082.047-.628.453-.976.254-.219.778-.211.965-.227.39-.039.504-.113.742-.414.27-.343.47-1.039.5-1.203.055-.25.008-.426-.187-.57-.668-.496-2.195-1.508-2.648-2.867-.059-.172-.145-.309-.473-.239-.23.051-.625.133-1.027.125-.125 0-.153.082-.184.153-.063.125-.117.23-.29.273-.241.05-.85.05-1.01 0a.333.333 0 0 1-.196-.14c-.05-.075-.16-.086-.23-.004-.047.058-.118.132-.325.132-.18 0-.328-.007-.484-.03-.266-.052-.188-.192-.348-.204-.105-.012-.12.094-.297.102-.43.011-.5-.18-.5-.18a3.906 3.906 0 0 0-1.96 3.39 3.85 3.85 0 0 0 1.07 2.653c-.067.27-.137.387-.352.387H13.81c-.106 0-.172-.043-.192-.176-.023-.215.113-.985.75-1.18.336-.101.422-.05.738-.082.137-.015.387-.031.446-.262.18-.695-.531-1.53-.63-3.62-.015-.286-.026-.524-.194-.86-.172-.34-.715-.992-.84-3.168-.469.598-1.278.465-1.407.395.45-.45 1.11-1.79.754-3.16-.316.648-.855.773-1.214.757.597-.508.593-1.785.316-2.234-.129.136-.25.375-.297.582-.289-.477-.797-2.258-.062-3.746-.536.238-.836 1.039-.895 1.246-.148-.512-.344-2.25.79-3.238-.52.054-1.017-.149-1.134-.313.532-.223.961-.773 1.145-1.57.191-.84.398-1.805.957-1.907a.436.436 0 0 1 .402.125c.094.086.164.075.137-.066-.035-.191-.242-.562-.54-.547-.187.008-.308.153-.366.332-.133-.242-.043-.976.562-.93.285.02.461.235.524.293.058.06.109.083.097-.058a.73.73 0 0 0-.222-.399c.656-.425 2.062-.515 2.988-.484-.106.356-.156.738-.133.914a3.56 3.56 0 0 1 .773-.867c.372.039.852.148.989.195.324.11.414.242.523.418a.65.65 0 0 1 .48-.11c.31.06.481.395.434.856-.047-.07-.156-.254-.37-.265-.247-.008-.446.27-.505.468-.058.192.02.204.117.122.114-.098.383-.286.668.03-.273.376-.085.763.098 1.016.219.301.77.852.774 1.637-.145-.055-.375-.156-.594-.148.363.32.554.61.812 1.261.211.543.414.91.903 1.278-.278.16-.754.097-.977 0 .926 1.441 2.23 1.59 4.715 3.351 2.144 1.524 4.441.782 5.82 2.325.992-.055 1.899-.665 1.774-1.336-.188-.993-2.282-1.114-3.239-1.11-.914.004-3.515.07-3.57-1.386-.02-.543.41-1.079 1.418-1.415.125-.253.32-.808 1.254-.937a.677.677 0 0 0-.106.348c.7-.442 1.985-.286 2.45.097-1.157.094-1.246 1.274-2.36 1.465-.527.09-.847-.16-1.05-.312-.247.011-.832.273-.86.644-.066.852 2.238.742 2.871.727 2.102-.059 4.14.36 4.223 1.906.055.992-.828 1.902-2.281 2.281.468.918.468 2.278.449 2.973-.02.82.066 2.031.152 2.258.196.508.387.597.473 1.062.144.785.094 1.524.418 2.531.191.59.512.77.648.95M13.766 4.89c-.016.011-.024.129-.024.129s.211.058.445.035c.266-.032.415-.117.547-.09.227.047.614.328.649.445.094.305.031.813-.028 1.086.2-.043.45-.078.665-.082.277 0 .617.05.824.121.008.067.031.168-.024.215-.23.21-.633.46-.633.46l-.05.407c.261.086.586.399.843.41.239.012.426-.035.54-.097.085-.051.128-.133.12-.246a1.874 1.874 0 0 0-.269-.77c-.074-.117-.105-.273.04-.402a2.74 2.74 0 0 1 .55-.352c.293-.14.379-.281.328-.457-.074-.246-.23-.523-.23-.523-.11.054-.215.187-.38.3a.32.32 0 0 1-.23.04c-.133-.016-.23-.067-.304-.06-.176.009-.313.192-.387.458-.016-.066-.106-.258-.055-.5.024-.117.309-.402.535-.45.133-.027.282.06.547.09.23.024.39-.007.39-.007s-.034-.278-.12-.52c-.114-.312-.223-.406-.461-.488a6.888 6.888 0 0 0-.887-.246c-.105.066-.484.57-.691.863-.203-.293-.582-.797-.688-.863-.223.047-.55.137-.652.176-.149.054-.239.109-.215.242.05.289.02.37-.266.473-.215.074-.37.167-.43.203m2.13 4.234c-.02-.094.03-.121.101-.066.262.195.274.593.277.648.008.055.043.043.079.008.168-.188.394-.3.476-.36.192-.136.223-.32.246-.418.024-.101.074-.226.11-.289.03-.054.02-.14-.075-.171-.148-.047-.32-.13-.543-.364a.294.294 0 0 0-.296-.062.699.699 0 0 1-.254.05.799.799 0 0 1-.254-.046c-.125-.043-.242 0-.297.062-.223.23-.39.32-.52.356-.105.027-.125.074-.14.136-.133.637.297.688.402.73.238.087.426.282.512.368.039.04.066.035.086 0 .12-.176.105-.492.09-.582m-1.38-1.195c.114.062.297.105.54.093.254-.011.582-.324.84-.406l-.051-.41s-.406-.254-.645-.465c-.125-.113-.375-.039-.402-.012-.184.2-.379.625-.402.95-.008.113.035.199.12.25m-.8-1.89c.187.124.543.015.633-.009.09-.023.3-.11.386-.11.067 0 .149 0 .239.075.039.027.062.027.058-.027 0-.055-.004-.5-.207-.516-.074-.004-.168.047-.304.063a.294.294 0 0 1-.227-.043c-.168-.11-.387-.27-.496-.328-.266.578-.188.82-.082.894m.738 7.695c.219-1.437 1.348-1.78 1.453-2.527-.566.684-2.219 1.027-1.453 2.527m2.207 2.61c1.797-.633 1.074-3.41 2.402-4.055-.265.66-.242 1.25.032 1.727.293-1.586 1.62-2.149.71-4.25.114 2.609-1.902 1.847-2.425 3.98-.828-.902.219-1.941-.219-2.71-.336 1.675-1.82 2.343-1.324 4.269.16-.672.601-1.344 1.059-1.594a3.248 3.248 0 0 1-.235 2.633m14.563 2.07c.175-.789-.227-2.11-.625-2.672-.766-1.07-1.785-1.156-2.692-1.32-1.515-.274-2.195-.426-3.414-1.176-.37-.23-1.762-1.355-2.863-1.234-.317.035-.418.097-.559.312-.199.301-.3.899-.21 1.348.093.469.433.808.433 1.406 0 .453-.39.988-.34 1.188.05.195.36.203.402.476.055.356-1.046.621-.976.969.035.187.656.14.656.336 0 .2-.226.379-.527.433-.274.051-1.098-.039-1.399.02-.761.148-.902.773-.96.992-.102.387.246.387.367.383.218-.008.261-.176.367-.246.058-.04.105-.035.113.016.004.043 0 .101 0 .164 0 .148.067.191.219.226.215.043.45.024.625-.023.152-.04.219-.149.289-.25.09-.137.16-.098.168.004.023.277.11.3.281.324.176.023.418.008.527-.024.22-.062.215-.402.344-.53.172-.165.43-.134.68-.306.246-.171.863-.832 1.246-1.195.25-.242.234-.469.191-.75-.039-.246-.253-1.55.301-1.93.184-.125.34-.066.297.11-.168.664.133 1.21.344 1.473.344.425 1.91-.051 2.281-.102.371-.047.797-.05 1.113.254.168.16.38.523.48.71.114.212.243.114.27-.081.086-.602-.039-1.203-.328-1.84-.07-.164.02-.316.297-.188 1.844.864 1.942 2.559 2.176 2.887.125.176.367.106.426-.164m-19.696 9.617c1.313.024 2.043.61 2.043 1.653 0 1.03-.789 1.855-2.09 1.855-.093 0-.203-.004-.203-.004v1.852H9.97c.117-.102.273-.43.273-.774v-3.82c0-.27-.094-.652-.281-.762h1.566m-.093 2.645c.632-.008 1.07-.356 1.07-.93 0-.535-.309-.875-1.004-.875-.129 0-.223-.004-.223-.004v1.805s.063.004.157.004m6.379 2.707h-1.278l-.906-1.926c-.047-.086-.094-.27-.348-.27h-.136v2.196h-1.31c.118-.098.274-.43.274-.774v-3.82c0-.27-.093-.652-.285-.762l1.692-.004c1.18 0 1.941.41 1.941 1.5 0 .79-.46 1.317-.988 1.489 0 0 .129.066.27.316zm-2.43-2.942c.617 0 .996-.316.996-.812 0-.512-.305-.77-.965-.77h-.273v1.582h.242m22.726 2.942h-1.273l-.906-1.926c-.047-.086-.094-.27-.352-.27h-.137v2.196h-1.308c.117-.098.277-.43.277-.774v-3.82c0-.27-.097-.652-.285-.762l1.691-.004c1.18 0 1.942.41 1.942 1.5 0 .79-.461 1.317-.988 1.489 0 0 .128.066.27.316zm-2.425-2.942c.613 0 .996-.316.996-.812 0-.512-.305-.77-.97-.77h-.269v1.582h.243m-12.41-2.414H21.98c.188.114.286.493.286.762v3.82c0 .344-.16.672-.278.774h1.301v-3.59l.016-.004c.09.27.203.496.27.598l.968 1.574h.488L26 30.387c.078-.133.223-.371.29-.598h.01c.005-.004 0 3.598 0 3.598h1.04V28.03h-1.027l-1.196 2.035c-.164.27-.258.418-.328.602h-.008c-.066-.176-.156-.332-.316-.602zm6.203-.004l-1.32.004c.19.11.284.493.284.762v3.82c0 .344-.156.676-.273.77h1.309zm-8.418 5.364l.363-.883h-1.867V31.05h1.539v-.86h-1.54v-1.293h1.747v-.867l-3.067-.004c.192.11.29.493.29.762v3.82c0 .344-.16.676-.278.774zm12.16 0l.367-.883h-1.871V31.05h1.539v-.86h-1.54v-1.293h1.747v-.867l-3.063-.004c.188.11.286.493.286.762v3.82c0 .344-.16.676-.278.774zm-15.637 6.418l.367-.883h-1.87v-1.453h1.538v-.86h-1.539v-1.293h1.746v-.87h-3.066c.191.109.285.492.285.761v3.82c0 .344-.156.676-.273.774zm18.785 0l.367-.883h-1.867v-1.453h1.535v-.86h-1.535v-1.293h1.742v-.87h-3.062c.187.109.285.492.285.761v3.82c0 .344-.16.676-.277.774zm-22.25 0l.367-.883h-1.789v-4.48l-1.32.003c.188.11.285.492.285.762v3.82c0 .344-.156.676-.277.774zm12.586-.95c-.168.055-.433.09-.687.09-1.082 0-1.68-.664-1.68-1.789 0-1.246.738-1.855 1.793-1.855.496 0 1.031.164 1.348.347l-.004-1.015a3.409 3.409 0 0 0-1.282-.246c-1.894 0-2.972 1.097-2.972 2.773 0 1.625.984 2.711 2.68 2.711.64 0 1.378-.187 1.828-.434l-.004-2.285H26.43c.12.098.273.434.273.774v.93m-3.922.19c.117.329.262.645.414.75h-1.218l-.352-1.085h-1.879l-.344 1.09h-1.218c.152-.106.296-.422.414-.75.074-.203 1.566-4.594 1.566-4.594h1.05s1.493 4.39 1.567 4.59m-1.41-1.149l-.46-1.375a6.776 6.776 0 0 1-.231-.87h-.004a7.32 7.32 0 0 1-.238.89l-.446 1.355zm7.254.036c0 1.074.434 1.93 2.027 1.93 1.535 0 2.18-.844 2.18-1.942v-3.469h-1.004v3.422c0 .7-.328 1.137-1.105 1.137-.836 0-1.086-.442-1.086-1.145v-3.414l-1.282-.004c.118.102.274.434.274.778z" fill="#000043"/></g><metadata><rdf:RDF xmlns:rdf="http://www.w3.org/1999/02/22-rdf-syntax-ns#" xmlns:rdfs="http://www.w3.org/2000/01/rdf-schema#" xmlns:dc="http://purl.org/dc/elements/1.1/"><rdf:Description about="https://iconscout.com/legal#licenses" dc:title="the,premier,league" dc:description="the,premier,league" dc:publisher="Iconscout" dc:date="2017-12-15" dc:format="image/svg+xml" dc:language="en"><dc:creator><rdf:Bag><rdf:li>Icons8</rdf:li></rdf:Bag></dc:creator></rdf:Description></rdf:RDF></metadata></svg>